<svg id="Layer_1" data-name="Layer 1" xmlns="http://www.w3.org/2000/svg" xmlns:xlink="http://www.w3.org/1999/xlink" viewBox="0 0 48 48">
  <defs>
    <style>
      .cls-1 {
        fill: none;
      }

      .cls-2 {
        clip-path: url(#clip-path);
      }

      .cls-3 {
        fill: #2d2a26;
        fill-rule: evenodd;
      }

      .cls-4 {
        fill: #ffc629;
      }
    </style>
    <clipPath id="clip-path">
      <rect class="cls-1" width="48" height="48"/>
    </clipPath>
  </defs>
  <title>baggage-belt-01</title>
  <g>
    <g class="cls-2">
      <polygon class="cls-3" points="0 0 48 0 48 48 0 48 0 0 0 0"/>
    </g>
    <g>
      <path class="cls-4" d="M27.8,9.2H20.2a.6.6,0,0,0-.6.6V12h8.8V9.8A.6.6,0,0,0,27.8,9.2Z"/>
      <path class="cls-4" d="M.9.9V35.3H1A2.7,2.7,0,0,1,3.7,38v.2A2.7,2.7,0,0,1,.9,40.8v6.3H47.1V.9ZM15.8,12h1.7V7.9a1.2,1.2,0,0,1,1.2-1.2H29.3a1.2,1.2,0,0,1,1.2,1.2V12h1.7V32.5H15.8ZM9.1,40.9A2.9,2.9,0,0,1,6.4,38a2.7,2.7,0,0,1,2.7-2.7h.2a2.8,2.8,0,0,1-.2,5.6ZM14,32.5H10.6a2.9,2.9,0,0,1-2.8-2.8v-15A2.8,2.8,0,0,1,10.6,12H14Zm3.3,8.4A2.9,2.9,0,0,1,14.6,38a2.7,2.7,0,0,1,2.7-2.7h.2a2.8,2.8,0,0,1-.2,5.6Zm11-2.3a2.7,2.7,0,0,1-3.2,2.2,2.8,2.8,0,0,1-2.3-3.2,3,3,0,0,1,2.3-2.3,2.8,2.8,0,0,1,3.2,2.3A1.7,1.7,0,0,1,28.3,38.6Zm8.2,0a2.7,2.7,0,0,1-3.2,2.2A2.8,2.8,0,0,1,31,37.6a3,3,0,0,1,2.3-2.3,2.8,2.8,0,0,1,3.2,2.3A1.7,1.7,0,0,1,36.5,38.6ZM34,32.5V12h3.4a2.8,2.8,0,0,1,2.8,2.7v15a2.9,2.9,0,0,1-2.8,2.8Zm7.9,8.4a2.8,2.8,0,0,1,.1-5.6h.1a2.8,2.8,0,0,1-.2,5.6Z"/>
    </g>
  </g>
</svg>
